<svg xmlns="http://www.w3.org/2000/svg" xmlns:xlink="http://www.w3.org/1999/xlink" viewBox="0 0 430 430" width="430" height="430" preserveAspectRatio="xMidYMid meet" style="width: 100%; height: 100%; transform: translate3d(0px, 0px, 0px); content-visibility: visible;"><defs><clipPath id="__lottie_element_3972"><rect width="430" height="430" x="0" y="0"/></clipPath><clipPath id="__lottie_element_3974"><path d="M0,0 L430,0 L430,430 L0,430z"/></clipPath></defs><g clip-path="url(#__lottie_element_3972)"><g clip-path="url(#__lottie_element_3974)" transform="matrix(1,0,0,1,0,0)" opacity="1" style="display: block;"><g transform="matrix(1,0,0,1,150,244.7648468017578)" opacity="1" style="display: block;"><g opacity="1" transform="matrix(1,0,0,1,0,0)"><path class="secondary" fill="rgb(75,179,253)" fill-opacity="1" d=" M0,-22.5 C12.417750358581543,-22.5 22.5,-12.417750358581543 22.5,0 C22.5,12.417750358581543 12.417750358581543,22.5 0,22.5 C-12.417750358581543,22.5 -22.5,12.417750358581543 -22.5,0 C-22.5,-12.417750358581543 -12.417750358581543,-22.5 0,-22.5z"/></g><g opacity="0.5" transform="matrix(1,0,0,1,-1.187999963760376,1.218999981880188)" style="mix-blend-mode: multiply;"><path class="secondary" fill="rgb(75,179,253)" fill-opacity="1" d=" M11.196000099182129,11.303999900817871 C14.831000328063965,11.303999900817871 18.264999389648438,10.442000389099121 21.304000854492188,8.91100025177002 C17.601999282836914,16.26099967956543 9.98799991607666,21.304000854492188 1.1959999799728394,21.304000854492188 C-11.229999542236328,21.304000854492188 -21.304000854492188,11.229999542236328 -21.304000854492188,-1.1959999799728394 C-21.304000854492188,-9.98799991607666 -16.26099967956543,-17.601999282836914 -8.91100025177002,-21.304000854492188 C-10.442000389099121,-18.264999389648438 -11.303999900817871,-14.831000328063965 -11.303999900817871,-11.196000099182129 C-11.303999900817871,1.2300000190734863 -1.2300000190734863,11.303999900817871 11.196000099182129,11.303999900817871z"/></g></g><g transform="matrix(1,0,0,1,215,240.84210205078125)" opacity="1" style="display: block;"><g opacity="1" transform="matrix(1,0,0,1,0,0)"><path class="secondary" fill="rgb(75,179,253)" fill-opacity="1" d=" M0,-22.5 C12.417750358581543,-22.5 22.5,-12.417750358581543 22.5,0 C22.5,12.417750358581543 12.417750358581543,22.5 0,22.5 C-12.417750358581543,22.5 -22.5,12.417750358581543 -22.5,0 C-22.5,-12.417750358581543 -12.417750358581543,-22.5 0,-22.5z"/></g><g opacity="0.5" transform="matrix(1,0,0,1,-1.187999963760376,1.218999981880188)" style="mix-blend-mode: multiply;"><path class="secondary" fill="rgb(75,179,253)" fill-opacity="1" d=" M11.196000099182129,11.303999900817871 C14.831000328063965,11.303999900817871 18.264999389648438,10.442000389099121 21.304000854492188,8.91100025177002 C17.601999282836914,16.26099967956543 9.98799991607666,21.304000854492188 1.1959999799728394,21.304000854492188 C-11.229999542236328,21.304000854492188 -21.304000854492188,11.229999542236328 -21.304000854492188,-1.1959999799728394 C-21.304000854492188,-9.98799991607666 -16.26099967956543,-17.601999282836914 -8.91100025177002,-21.304000854492188 C-10.442000389099121,-18.264999389648438 -11.303999900817871,-14.831000328063965 -11.303999900817871,-11.196000099182129 C-11.303999900817871,1.2300000190734863 -1.2300000190734863,11.303999900817871 11.196000099182129,11.303999900817871z"/></g></g><g transform="matrix(1,0,0,1,280,225.92156982421875)" opacity="1" style="display: block;"><g opacity="1" transform="matrix(1,0,0,1,0,0)"><path class="secondary" fill="rgb(75,179,253)" fill-opacity="1" d=" M0,-22.5 C12.417750358581543,-22.5 22.5,-12.417750358581543 22.5,0 C22.5,12.417750358581543 12.417750358581543,22.5 0,22.5 C-12.417750358581543,22.5 -22.5,12.417750358581543 -22.5,0 C-22.5,-12.417750358581543 -12.417750358581543,-22.5 0,-22.5z"/></g><g opacity="0.5" transform="matrix(1,0,0,1,-1.156000018119812,1.1720000505447388)" style="mix-blend-mode: multiply;"><path class="secondary" fill="rgb(75,179,253)" fill-opacity="1" d=" M11.196000099182129,11.303999900817871 C14.831000328063965,11.303999900817871 18.264999389648438,10.442000389099121 21.304000854492188,8.91100025177002 C17.601999282836914,16.26099967956543 9.98799991607666,21.304000854492188 1.1959999799728394,21.304000854492188 C-11.229999542236328,21.304000854492188 -21.304000854492188,11.229999542236328 -21.304000854492188,-1.1959999799728394 C-21.304000854492188,-9.98799991607666 -16.26099967956543,-17.601999282836914 -8.91100025177002,-21.304000854492188 C-10.442000389099121,-18.264999389648438 -11.303999900817871,-14.831000328063965 -11.303999900817871,-11.196000099182129 C-11.303999900817871,1.2300000190734863 -1.2300000190734863,11.303999900817871 11.196000099182129,11.303999900817871z"/></g></g><g transform="matrix(1,0,0,1,73.64085388183594,215)" opacity="1" style="display: block;"><g opacity="1" transform="matrix(1,0,0,1,0,0)"><path class="secondary" fill="rgb(75,179,253)" fill-opacity="1" d=" M61.8489990234375,-169.94900512695312 C15.357000350952148,-168.36599731445312 -21.832000732421875,-130.1929931640625 -21.832000732421875,-83.31400299072266 C-21.832000732421875,-83.31400299072266 -21.832000732421875,-42.56800079345703 -21.832000732421875,-42.56800079345703 C-21.832000732421875,-40.180999755859375 -22.881999969482422,-37.939998626708984 -24.57200050354004,-36.46799850463867 C-24.57200050354004,-36.46799850463867 -24.589000701904297,-36.452999114990234 -24.589000701904297,-36.452999114990234 C-24.589000701904297,-36.452999114990234 -63.827999114990234,-2.1459999084472656 -63.827999114990234,-2.1459999084472656 C-65.197998046875,-0.9480000138282776 -65.19499969482422,1.184000015258789 -63.82099914550781,2.377000093460083 C-63.82099914550781,2.377000093460083 -24.57200050354004,36.46799850463867 -24.57200050354004,36.46799850463867 C-24.56999969482422,36.470001220703125 -24.566999435424805,36.47200012207031 -24.565000534057617,36.4739990234375 C-22.878999710083008,37.94599914550781 -21.832000732421875,40.183998107910156 -21.832000732421875,42.56800079345703 C-21.832000732421875,42.56800079345703 -21.832000732421875,83.31400299072266 -21.832000732421875,83.31400299072266 C-21.832000732421875,130.1929931640625 15.357000350952148,168.36599731445312 61.8489990234375,169.94900512695312 C63.505001068115234,170.0050048828125 64.85399627685547,168.65699768066406 64.85399627685547,167 C64.85399627685547,167 64.85399627685547,123 64.85399627685547,123 C64.85399627685547,121.34300231933594 63.50600051879883,120.01200103759766 61.85499954223633,119.87899780273438 C42.9900016784668,118.35399627685547 28.167999267578125,102.57499694824219 28.167999267578125,83.31400299072266 C28.167999267578125,83.31400299072266 28.167999267578125,42.56800079345703 28.167999267578125,42.56800079345703 C28.167999267578125,26.39699935913086 21.427000045776367,10.947999954223633 9.640999794006348,0 C21.427000045776367,-10.947999954223633 28.167999267578125,-26.39699935913086 28.167999267578125,-42.56800079345703 C28.167999267578125,-42.56800079345703 28.167999267578125,-83.31400299072266 28.167999267578125,-83.31400299072266 C28.167999267578125,-102.57499694824219 42.9900016784668,-118.35399627685547 61.85499954223633,-119.87899780273438 C63.50600051879883,-120.01200103759766 64.85399627685547,-121.34300231933594 64.85399627685547,-123 C64.85399627685547,-123 64.85399627685547,-167 64.85399627685547,-167 C64.85399627685547,-168.65699768066406 63.505001068115234,-170.0050048828125 61.8489990234375,-169.94900512695312z"/></g><g opacity="0.5" transform="matrix(1,0,0,1,0,0)" style="mix-blend-mode: multiply;"><path class="secondary" fill="rgb(75,179,253)" fill-opacity="1" d=" M61.8489990234375,-169.94900512695312 C63.505001068115234,-170.0050048828125 64.85399627685547,-168.65699768066406 64.85399627685547,-167 C64.85399627685547,-167 64.85399627685547,-147.21099853515625 64.85399627685547,-147.21099853515625 C29.16200065612793,-138.9149932861328 3.1679999828338623,-112.50700378417969 3.1679999828338623,-73.31400299072266 C3.1679999828338623,-73.31400299072266 3.1679999828338623,-37.56800079345703 3.1679999828338623,-37.56800079345703 C3.1679999828338623,-35.180999755859375 2.118000030517578,-32.939998626708984 0.42800000309944153,-31.468000411987305 C0.42800000309944153,-31.468000411987305 0.41100001335144043,-31.452999114990234 0.41100001335144043,-31.452999114990234 C0.41100001335144043,-31.452999114990234 -36.41999816894531,0.11999999731779099 -36.41999816894531,0.11999999731779099 C-36.41999816894531,0.11999999731779099 0.42800000309944153,31.468000411987305 0.42800000309944153,31.468000411987305 C0.42800000309944153,31.468000411987305 0.4350000023841858,31.474000930786133 0.4350000023841858,31.474000930786133 C2.121000051498413,32.94599914550781 3.1679999828338623,35.183998107910156 3.1679999828338623,37.56800079345703 C3.1679999828338623,37.56800079345703 3.1679999828338623,73.31400299072266 3.1679999828338623,73.31400299072266 C3.1679999828338623,112.50599670410156 29.16200065612793,138.9149932861328 64.85399627685547,147.21099853515625 C64.85399627685547,147.21099853515625 64.85399627685547,167 64.85399627685547,167 C64.85399627685547,168.65699768066406 63.505001068115234,170.0050048828125 61.8489990234375,169.94900512695312 C15.357000350952148,168.36599731445312 -21.832000732421875,130.1929931640625 -21.832000732421875,83.31400299072266 C-21.832000732421875,83.31400299072266 -21.832000732421875,42.56800079345703 -21.832000732421875,42.56800079345703 C-21.832000732421875,40.183998107910156 -22.878999710083008,37.94599914550781 -24.565000534057617,36.4739990234375 C-24.565000534057617,36.4739990234375 -24.57200050354004,36.46799850463867 -24.57200050354004,36.46799850463867 C-24.57200050354004,36.46799850463867 -63.82099914550781,2.377000093460083 -63.82099914550781,2.377000093460083 C-65.19499969482422,1.184000015258789 -65.197998046875,-0.9480000138282776 -63.827999114990234,-2.1459999084472656 C-63.827999114990234,-2.1459999084472656 -24.589000701904297,-36.452999114990234 -24.589000701904297,-36.452999114990234 C-24.589000701904297,-36.452999114990234 -24.57200050354004,-36.46799850463867 -24.57200050354004,-36.46799850463867 C-22.881999969482422,-37.939998626708984 -21.832000732421875,-40.180999755859375 -21.832000732421875,-42.56800079345703 C-21.832000732421875,-42.56800079345703 -21.832000732421875,-83.31400299072266 -21.832000732421875,-83.31400299072266 C-21.832000732421875,-130.1929931640625 15.357000350952148,-168.36599731445312 61.8489990234375,-169.94900512695312z"/></g></g><g transform="matrix(-1,0,0,-1,357.2781066894531,215)" opacity="1" style="display: block;"><g opacity="1" transform="matrix(1,0,0,1,0,0)"><path class="secondary" fill="rgb(75,179,253)" fill-opacity="1" d=" M61.8489990234375,-169.94900512695312 C15.357000350952148,-168.36599731445312 -21.832000732421875,-130.1929931640625 -21.832000732421875,-83.31400299072266 C-21.832000732421875,-83.31400299072266 -21.832000732421875,-42.56800079345703 -21.832000732421875,-42.56800079345703 C-21.832000732421875,-40.180999755859375 -22.881999969482422,-37.939998626708984 -24.57200050354004,-36.46799850463867 C-24.57200050354004,-36.46799850463867 -24.589000701904297,-36.452999114990234 -24.589000701904297,-36.452999114990234 C-24.589000701904297,-36.452999114990234 -63.827999114990234,-2.1459999084472656 -63.827999114990234,-2.1459999084472656 C-65.197998046875,-0.9480000138282776 -65.19499969482422,1.184000015258789 -63.82099914550781,2.377000093460083 C-63.82099914550781,2.377000093460083 -24.57200050354004,36.46799850463867 -24.57200050354004,36.46799850463867 C-24.56999969482422,36.470001220703125 -24.566999435424805,36.47200012207031 -24.565000534057617,36.4739990234375 C-22.878999710083008,37.94599914550781 -21.832000732421875,40.183998107910156 -21.832000732421875,42.56800079345703 C-21.832000732421875,42.56800079345703 -21.832000732421875,83.31400299072266 -21.832000732421875,83.31400299072266 C-21.832000732421875,130.1929931640625 15.357000350952148,168.36599731445312 61.8489990234375,169.94900512695312 C63.505001068115234,170.0050048828125 64.85399627685547,168.65699768066406 64.85399627685547,167 C64.85399627685547,167 64.85399627685547,123 64.85399627685547,123 C64.85399627685547,121.34300231933594 63.50600051879883,120.01200103759766 61.85499954223633,119.87899780273438 C42.9900016784668,118.35399627685547 28.167999267578125,102.57499694824219 28.167999267578125,83.31400299072266 C28.167999267578125,83.31400299072266 28.167999267578125,42.56800079345703 28.167999267578125,42.56800079345703 C28.167999267578125,26.39699935913086 21.427000045776367,10.947999954223633 9.640999794006348,0 C21.427000045776367,-10.947999954223633 28.167999267578125,-26.39699935913086 28.167999267578125,-42.56800079345703 C28.167999267578125,-42.56800079345703 28.167999267578125,-83.31400299072266 28.167999267578125,-83.31400299072266 C28.167999267578125,-102.57499694824219 42.9900016784668,-118.35399627685547 61.85499954223633,-119.87899780273438 C63.50600051879883,-120.01200103759766 64.85399627685547,-121.34300231933594 64.85399627685547,-123 C64.85399627685547,-123 64.85399627685547,-167 64.85399627685547,-167 C64.85399627685547,-168.65699768066406 63.505001068115234,-170.0050048828125 61.8489990234375,-169.94900512695312z"/><path class="secondary" fill="rgb(75,179,253)" fill-opacity="0.5" d=" M61.8489990234375,-169.94900512695312 C15.357000350952148,-168.36599731445312 -21.832000732421875,-130.1929931640625 -21.832000732421875,-83.31400299072266 C-21.832000732421875,-83.31400299072266 -21.832000732421875,-42.56800079345703 -21.832000732421875,-42.56800079345703 C-21.832000732421875,-40.180999755859375 -22.881999969482422,-37.939998626708984 -24.57200050354004,-36.46799850463867 C-24.57200050354004,-36.46799850463867 -24.589000701904297,-36.452999114990234 -24.589000701904297,-36.452999114990234 C-24.589000701904297,-36.452999114990234 -63.827999114990234,-2.1459999084472656 -63.827999114990234,-2.1459999084472656 C-65.197998046875,-0.9480000138282776 -65.19499969482422,1.184000015258789 -63.82099914550781,2.377000093460083 C-63.82099914550781,2.377000093460083 -24.57200050354004,36.46799850463867 -24.57200050354004,36.46799850463867 C-24.56999969482422,36.470001220703125 -24.566999435424805,36.47200012207031 -24.565000534057617,36.4739990234375 C-22.878999710083008,37.94599914550781 -21.832000732421875,40.183998107910156 -21.832000732421875,42.56800079345703 C-21.832000732421875,42.56800079345703 -21.832000732421875,83.31400299072266 -21.832000732421875,83.31400299072266 C-21.832000732421875,130.1929931640625 15.357000350952148,168.36599731445312 61.8489990234375,169.94900512695312 C63.505001068115234,170.0050048828125 64.85399627685547,168.65699768066406 64.85399627685547,167 C64.85399627685547,167 64.85399627685547,123 64.85399627685547,123 C64.85399627685547,121.34300231933594 63.50600051879883,120.01200103759766 61.85499954223633,119.87899780273438 C42.9900016784668,118.35399627685547 28.167999267578125,102.57499694824219 28.167999267578125,83.31400299072266 C28.167999267578125,83.31400299072266 28.167999267578125,42.56800079345703 28.167999267578125,42.56800079345703 C28.167999267578125,26.39699935913086 21.427000045776367,10.947999954223633 9.640999794006348,0 C21.427000045776367,-10.947999954223633 28.167999267578125,-26.39699935913086 28.167999267578125,-42.56800079345703 C28.167999267578125,-42.56800079345703 28.167999267578125,-83.31400299072266 28.167999267578125,-83.31400299072266 C28.167999267578125,-102.57499694824219 42.9900016784668,-118.35399627685547 61.85499954223633,-119.87899780273438 C63.50600051879883,-120.01200103759766 64.85399627685547,-121.34300231933594 64.85399627685547,-123 C64.85399627685547,-123 64.85399627685547,-167 64.85399627685547,-167 C64.85399627685547,-168.65699768066406 63.505001068115234,-170.0050048828125 61.8489990234375,-169.94900512695312z" style="mix-blend-mode: multiply;"/></g><g opacity="1" transform="matrix(1,0,0,1,0,0)"><path class="secondary" fill="rgb(75,179,253)" fill-opacity="1" d=" M61.8489990234375,-169.94900512695312 C63.505001068115234,-170.0050048828125 64.85399627685547,-168.65699768066406 64.85399627685547,-167 C64.85399627685547,-167 64.85399627685547,-147.21099853515625 64.85399627685547,-147.21099853515625 C29.16200065612793,-138.9149932861328 3.1679999828338623,-112.50700378417969 3.1679999828338623,-73.31400299072266 C3.1679999828338623,-73.31400299072266 3.1679999828338623,-37.56800079345703 3.1679999828338623,-37.56800079345703 C3.1679999828338623,-35.180999755859375 2.118000030517578,-32.939998626708984 0.42800000309944153,-31.468000411987305 C0.42800000309944153,-31.468000411987305 0.41100001335144043,-31.452999114990234 0.41100001335144043,-31.452999114990234 C0.41100001335144043,-31.452999114990234 -36.41999816894531,0.11999999731779099 -36.41999816894531,0.11999999731779099 C-36.41999816894531,0.11999999731779099 0.42800000309944153,31.468000411987305 0.42800000309944153,31.468000411987305 C0.42800000309944153,31.468000411987305 0.4350000023841858,31.474000930786133 0.4350000023841858,31.474000930786133 C2.121000051498413,32.94599914550781 3.1679999828338623,35.183998107910156 3.1679999828338623,37.56800079345703 C3.1679999828338623,37.56800079345703 3.1679999828338623,73.31400299072266 3.1679999828338623,73.31400299072266 C3.1679999828338623,112.50599670410156 29.16200065612793,138.9149932861328 64.85399627685547,147.21099853515625 C64.85399627685547,147.21099853515625 64.85399627685547,167 64.85399627685547,167 C64.85399627685547,168.65699768066406 63.505001068115234,170.0050048828125 61.8489990234375,169.94900512695312 C15.357000350952148,168.36599731445312 -21.832000732421875,130.1929931640625 -21.832000732421875,83.31400299072266 C-21.832000732421875,83.31400299072266 -21.832000732421875,42.56800079345703 -21.832000732421875,42.56800079345703 C-21.832000732421875,40.183998107910156 -22.878999710083008,37.94599914550781 -24.565000534057617,36.4739990234375 C-24.565000534057617,36.4739990234375 -24.57200050354004,36.46799850463867 -24.57200050354004,36.46799850463867 C-24.57200050354004,36.46799850463867 -63.82099914550781,2.377000093460083 -63.82099914550781,2.377000093460083 C-65.19499969482422,1.184000015258789 -65.197998046875,-0.9480000138282776 -63.827999114990234,-2.1459999084472656 C-63.827999114990234,-2.1459999084472656 -24.589000701904297,-36.452999114990234 -24.589000701904297,-36.452999114990234 C-24.589000701904297,-36.452999114990234 -24.57200050354004,-36.46799850463867 -24.57200050354004,-36.46799850463867 C-22.881999969482422,-37.939998626708984 -21.832000732421875,-40.180999755859375 -21.832000732421875,-42.56800079345703 C-21.832000732421875,-42.56800079345703 -21.832000732421875,-83.31400299072266 -21.832000732421875,-83.31400299072266 C-21.832000732421875,-130.1929931640625 15.357000350952148,-168.36599731445312 61.8489990234375,-169.94900512695312z"/></g></g><g transform="matrix(1,0,0,1,150,244.7648468017578)" opacity="1" style="display: block;"><g opacity="1" transform="matrix(1,0,0,1,0,0)"><path stroke-linecap="butt" stroke-linejoin="miter" fill-opacity="0" stroke-miterlimit="4" class="primary" stroke="rgb(18,19,49)" stroke-opacity="1" stroke-width="7" d=" M0,-22.5 C12.417750358581543,-22.5 22.5,-12.417750358581543 22.5,0 C22.5,12.417750358581543 12.417750358581543,22.5 0,22.5 C-12.417750358581543,22.5 -22.5,12.417750358581543 -22.5,0 C-22.5,-12.417750358581543 -12.417750358581543,-22.5 0,-22.5z"/></g></g><g transform="matrix(1,0,0,1,215,240.84210205078125)" opacity="1" style="display: block;"><g opacity="1" transform="matrix(1,0,0,1,0,0)"><path stroke-linecap="butt" stroke-linejoin="miter" fill-opacity="0" stroke-miterlimit="4" class="primary" stroke="rgb(18,19,49)" stroke-opacity="1" stroke-width="7" d=" M0,-22.5 C12.417750358581543,-22.5 22.5,-12.417750358581543 22.5,0 C22.5,12.417750358581543 12.417750358581543,22.5 0,22.5 C-12.417750358581543,22.5 -22.5,12.417750358581543 -22.5,0 C-22.5,-12.417750358581543 -12.417750358581543,-22.5 0,-22.5z"/></g></g><g transform="matrix(1,0,0,1,280,225.92156982421875)" opacity="1" style="display: block;"><g opacity="1" transform="matrix(1,0,0,1,0,0)"><path stroke-linecap="butt" stroke-linejoin="miter" fill-opacity="0" stroke-miterlimit="4" class="primary" stroke="rgb(18,19,49)" stroke-opacity="1" stroke-width="7" d=" M0,-22.5 C12.417750358581543,-22.5 22.5,-12.417750358581543 22.5,0 C22.5,12.417750358581543 12.417750358581543,22.5 0,22.5 C-12.417750358581543,22.5 -22.5,12.417750358581543 -22.5,0 C-22.5,-12.417750358581543 -12.417750358581543,-22.5 0,-22.5z"/></g></g><g transform="matrix(1,0,0,1,73.64085388183594,215)" opacity="1" style="display: block;"><g opacity="1" transform="matrix(1,0,0,1,0,0)"><path stroke-linecap="butt" stroke-linejoin="miter" fill-opacity="0" stroke-miterlimit="4" class="primary" stroke="rgb(18,19,49)" stroke-opacity="1" stroke-width="7" d=" M61.8489990234375,-169.94900512695312 C15.357000350952148,-168.36599731445312 -21.832000732421875,-130.1929931640625 -21.832000732421875,-83.31400299072266 C-21.832000732421875,-83.31400299072266 -21.832000732421875,-42.56800079345703 -21.832000732421875,-42.56800079345703 C-21.832000732421875,-40.180999755859375 -22.881999969482422,-37.939998626708984 -24.57200050354004,-36.46799850463867 C-24.57200050354004,-36.46799850463867 -24.589000701904297,-36.452999114990234 -24.589000701904297,-36.452999114990234 C-24.589000701904297,-36.452999114990234 -63.827999114990234,-2.1459999084472656 -63.827999114990234,-2.1459999084472656 C-65.197998046875,-0.9480000138282776 -65.19499969482422,1.184000015258789 -63.82099914550781,2.377000093460083 C-63.82099914550781,2.377000093460083 -24.57200050354004,36.46799850463867 -24.57200050354004,36.46799850463867 C-24.56999969482422,36.470001220703125 -24.566999435424805,36.47200012207031 -24.565000534057617,36.4739990234375 C-22.878999710083008,37.94599914550781 -21.832000732421875,40.183998107910156 -21.832000732421875,42.56800079345703 C-21.832000732421875,42.56800079345703 -21.832000732421875,83.31400299072266 -21.832000732421875,83.31400299072266 C-21.832000732421875,130.1929931640625 15.357000350952148,168.36599731445312 61.8489990234375,169.94900512695312 C63.505001068115234,170.0050048828125 64.85399627685547,168.65699768066406 64.85399627685547,167 C64.85399627685547,167 64.85399627685547,123 64.85399627685547,123 C64.85399627685547,121.34300231933594 63.50600051879883,120.01200103759766 61.85499954223633,119.87899780273438 C42.9900016784668,118.35399627685547 28.167999267578125,102.57499694824219 28.167999267578125,83.31400299072266 C28.167999267578125,83.31400299072266 28.167999267578125,42.56800079345703 28.167999267578125,42.56800079345703 C28.167999267578125,26.39699935913086 21.427000045776367,10.947999954223633 9.640999794006348,0 C21.427000045776367,-10.947999954223633 28.167999267578125,-26.39699935913086 28.167999267578125,-42.56800079345703 C28.167999267578125,-42.56800079345703 28.167999267578125,-83.31400299072266 28.167999267578125,-83.31400299072266 C28.167999267578125,-102.57499694824219 42.9900016784668,-118.35399627685547 61.85499954223633,-119.87899780273438 C63.50600051879883,-120.01200103759766 64.85399627685547,-121.34300231933594 64.85399627685547,-123 C64.85399627685547,-123 64.85399627685547,-167 64.85399627685547,-167 C64.85399627685547,-168.65699768066406 63.505001068115234,-170.0050048828125 61.8489990234375,-169.94900512695312z"/></g></g><g transform="matrix(-1,0,0,-1,357.2781066894531,215)" opacity="1" style="display: block;"><g opacity="1" transform="matrix(1,0,0,1,0,0)"><path stroke-linecap="butt" stroke-linejoin="miter" fill-opacity="0" stroke-miterlimit="4" class="primary" stroke="rgb(18,19,49)" stroke-opacity="1" stroke-width="7" d=" M61.8489990234375,-169.94900512695312 C15.357000350952148,-168.36599731445312 -21.832000732421875,-130.1929931640625 -21.832000732421875,-83.31400299072266 C-21.832000732421875,-83.31400299072266 -21.832000732421875,-42.56800079345703 -21.832000732421875,-42.56800079345703 C-21.832000732421875,-40.180999755859375 -22.881999969482422,-37.939998626708984 -24.57200050354004,-36.46799850463867 C-24.57200050354004,-36.46799850463867 -24.589000701904297,-36.452999114990234 -24.589000701904297,-36.452999114990234 C-24.589000701904297,-36.452999114990234 -63.827999114990234,-2.1459999084472656 -63.827999114990234,-2.1459999084472656 C-65.197998046875,-0.9480000138282776 -65.19499969482422,1.184000015258789 -63.82099914550781,2.377000093460083 C-63.82099914550781,2.377000093460083 -24.57200050354004,36.46799850463867 -24.57200050354004,36.46799850463867 C-24.56999969482422,36.470001220703125 -24.566999435424805,36.47200012207031 -24.565000534057617,36.4739990234375 C-22.878999710083008,37.94599914550781 -21.832000732421875,40.183998107910156 -21.832000732421875,42.56800079345703 C-21.832000732421875,42.56800079345703 -21.832000732421875,83.31400299072266 -21.832000732421875,83.31400299072266 C-21.832000732421875,130.1929931640625 15.357000350952148,168.36599731445312 61.8489990234375,169.94900512695312 C63.505001068115234,170.0050048828125 64.85399627685547,168.65699768066406 64.85399627685547,167 C64.85399627685547,167 64.85399627685547,123 64.85399627685547,123 C64.85399627685547,121.34300231933594 63.50600051879883,120.01200103759766 61.85499954223633,119.87899780273438 C42.9900016784668,118.35399627685547 28.167999267578125,102.57499694824219 28.167999267578125,83.31400299072266 C28.167999267578125,83.31400299072266 28.167999267578125,42.56800079345703 28.167999267578125,42.56800079345703 C28.167999267578125,26.39699935913086 21.427000045776367,10.947999954223633 9.640999794006348,0 C21.427000045776367,-10.947999954223633 28.167999267578125,-26.39699935913086 28.167999267578125,-42.56800079345703 C28.167999267578125,-42.56800079345703 28.167999267578125,-83.31400299072266 28.167999267578125,-83.31400299072266 C28.167999267578125,-102.57499694824219 42.9900016784668,-118.35399627685547 61.85499954223633,-119.87899780273438 C63.50600051879883,-120.01200103759766 64.85399627685547,-121.34300231933594 64.85399627685547,-123 C64.85399627685547,-123 64.85399627685547,-167 64.85399627685547,-167 C64.85399627685547,-168.65699768066406 63.505001068115234,-170.0050048828125 61.8489990234375,-169.94900512695312z"/></g></g></g></g></svg>